<?xml version="1.0" encoding="UTF-8" standalone="no"?>
<!DOCTYPE svg PUBLIC "-//W3C//DTD SVG 1.1//EN"
 "http://www.w3.org/Graphics/SVG/1.1/DTD/svg11.dtd">
<!-- Generated by graphviz version 2.43.0 (0)
 -->
<!-- Title: %3 Pages: 1 -->
<svg width="780pt" height="260pt"
 viewBox="0.00 0.00 780.38 260.00" xmlns="http://www.w3.org/2000/svg" xmlns:xlink="http://www.w3.org/1999/xlink">
<g id="graph0" class="graph" transform="scale(1 1) rotate(0) translate(4 256)">
<title>%3</title>
<polygon fill="white" stroke="transparent" points="-4,4 -4,-256 776.38,-256 776.38,4 -4,4"/>
<!-- [root] aws_ec2_instance.myec2 (expand) -->
<g id="node1" class="node">
<title>[root] aws_ec2_instance.myec2 (expand)</title>
<polygon fill="none" stroke="black" points="317.38,-108 123.38,-108 123.38,-72 317.38,-72 317.38,-108"/>
<text text-anchor="middle" x="220.38" y="-86.3" font-family="Times,serif" font-size="14.00">aws_ec2_instance.myec2</text>
</g>
<!-- [root] provider[&quot;registry.terraform.io/hashicorp/aws&quot;] -->
<g id="node4" class="node">
<title>[root] provider[&quot;registry.terraform.io/hashicorp/aws&quot;]</title>
<polygon fill="none" stroke="black" points="325.38,-36 0.12,-18 325.38,0 650.65,-18 325.38,-36"/>
<text text-anchor="middle" x="325.38" y="-14.3" font-family="Times,serif" font-size="14.00">provider[&quot;registry.terraform.io/hashicorp/aws&quot;]</text>
</g>
<!-- [root] aws_ec2_instance.myec2 (expand)&#45;&gt;[root] provider[&quot;registry.terraform.io/hashicorp/aws&quot;] -->
<g id="edge1" class="edge">
<title>[root] aws_ec2_instance.myec2 (expand)&#45;&gt;[root] provider[&quot;registry.terraform.io/hashicorp/aws&quot;]</title>
<path fill="none" stroke="black" d="M246.07,-71.88C260.28,-62.4 278.07,-50.54 293.2,-40.45"/>
<polygon fill="black" stroke="black" points="295.38,-43.21 301.76,-34.75 291.49,-37.39 295.38,-43.21"/>
</g>
<!-- [root] aws_elastic_ip.pubip (expand) -->
<g id="node2" class="node">
<title>[root] aws_elastic_ip.pubip (expand)</title>
<polygon fill="none" stroke="black" points="498.88,-108 335.88,-108 335.88,-72 498.88,-72 498.88,-108"/>
<text text-anchor="middle" x="417.38" y="-86.3" font-family="Times,serif" font-size="14.00">aws_elastic_ip.pubip</text>
</g>
<!-- [root] aws_elastic_ip.pubip (expand)&#45;&gt;[root] provider[&quot;registry.terraform.io/hashicorp/aws&quot;] -->
<g id="edge2" class="edge">
<title>[root] aws_elastic_ip.pubip (expand)&#45;&gt;[root] provider[&quot;registry.terraform.io/hashicorp/aws&quot;]</title>
<path fill="none" stroke="black" d="M394.64,-71.7C382.51,-62.46 367.44,-51 354.46,-41.13"/>
<polygon fill="black" stroke="black" points="356.37,-38.18 346.29,-34.91 352.13,-43.75 356.37,-38.18"/>
</g>
<!-- [root] aws_security_group.dynamic (expand) -->
<g id="node3" class="node">
<title>[root] aws_security_group.dynamic (expand)</title>
<polygon fill="none" stroke="black" points="739.38,-108 517.38,-108 517.38,-72 739.38,-72 739.38,-108"/>
<text text-anchor="middle" x="628.38" y="-86.3" font-family="Times,serif" font-size="14.00">aws_security_group.dynamic</text>
</g>
<!-- [root] aws_security_group.dynamic (expand)&#45;&gt;[root] provider[&quot;registry.terraform.io/hashicorp/aws&quot;] -->
<g id="edge3" class="edge">
<title>[root] aws_security_group.dynamic (expand)&#45;&gt;[root] provider[&quot;registry.terraform.io/hashicorp/aws&quot;]</title>
<path fill="none" stroke="black" d="M554.65,-71.97C506.08,-60.74 442.87,-46.14 395.13,-35.11"/>
<polygon fill="black" stroke="black" points="395.72,-31.66 385.19,-32.82 394.14,-38.48 395.72,-31.66"/>
</g>
<!-- [root] var.sg_ports -->
<g id="node5" class="node">
<title>[root] var.sg_ports</title>
<polygon fill="none" stroke="black" points="766.38,-36 668.38,-36 668.38,0 772.38,0 772.38,-30 766.38,-36"/>
<polyline fill="none" stroke="black" points="766.38,-36 766.38,-30 "/>
<polyline fill="none" stroke="black" points="772.38,-30 766.38,-30 "/>
<text text-anchor="middle" x="720.38" y="-14.3" font-family="Times,serif" font-size="14.00">var.sg_ports</text>
</g>
<!-- [root] aws_security_group.dynamic (expand)&#45;&gt;[root] var.sg_ports -->
<g id="edge4" class="edge">
<title>[root] aws_security_group.dynamic (expand)&#45;&gt;[root] var.sg_ports</title>
<path fill="none" stroke="black" d="M651.12,-71.7C662.82,-62.8 677.24,-51.82 689.89,-42.2"/>
<polygon fill="black" stroke="black" points="692.06,-44.94 697.9,-36.1 687.82,-39.37 692.06,-44.94"/>
</g>
<!-- [root] provider[&quot;registry.terraform.io/hashicorp/aws&quot;] (close) -->
<g id="node6" class="node">
<title>[root] provider[&quot;registry.terraform.io/hashicorp/aws&quot;] (close)</title>
<ellipse fill="none" stroke="black" cx="417.38" cy="-162" rx="291.65" ry="18"/>
<text text-anchor="middle" x="417.38" y="-158.3" font-family="Times,serif" font-size="14.00">[root] provider[&quot;registry.terraform.io/hashicorp/aws&quot;] (close)</text>
</g>
<!-- [root] provider[&quot;registry.terraform.io/hashicorp/aws&quot;] (close)&#45;&gt;[root] aws_ec2_instance.myec2 (expand) -->
<g id="edge5" class="edge">
<title>[root] provider[&quot;registry.terraform.io/hashicorp/aws&quot;] (close)&#45;&gt;[root] aws_ec2_instance.myec2 (expand)</title>
<path fill="none" stroke="black" d="M370.2,-144.23C342.58,-134.42 307.51,-121.96 278.24,-111.56"/>
<polygon fill="black" stroke="black" points="279.15,-108.17 268.55,-108.12 276.8,-114.76 279.15,-108.17"/>
</g>
<!-- [root] provider[&quot;registry.terraform.io/hashicorp/aws&quot;] (close)&#45;&gt;[root] aws_elastic_ip.pubip (expand) -->
<g id="edge6" class="edge">
<title>[root] provider[&quot;registry.terraform.io/hashicorp/aws&quot;] (close)&#45;&gt;[root] aws_elastic_ip.pubip (expand)</title>
<path fill="none" stroke="black" d="M417.38,-143.7C417.38,-135.98 417.38,-126.71 417.38,-118.11"/>
<polygon fill="black" stroke="black" points="420.88,-118.1 417.38,-108.1 413.88,-118.1 420.88,-118.1"/>
</g>
<!-- [root] provider[&quot;registry.terraform.io/hashicorp/aws&quot;] (close)&#45;&gt;[root] aws_security_group.dynamic (expand) -->
<g id="edge7" class="edge">
<title>[root] provider[&quot;registry.terraform.io/hashicorp/aws&quot;] (close)&#45;&gt;[root] aws_security_group.dynamic (expand)</title>
<path fill="none" stroke="black" d="M467.92,-144.23C497.75,-134.34 535.72,-121.74 567.23,-111.29"/>
<polygon fill="black" stroke="black" points="568.4,-114.59 576.79,-108.12 566.2,-107.94 568.4,-114.59"/>
</g>
<!-- [root] root -->
<g id="node7" class="node">
<title>[root] root</title>
<ellipse fill="none" stroke="black" cx="417.38" cy="-234" rx="58.49" ry="18"/>
<text text-anchor="middle" x="417.38" y="-230.3" font-family="Times,serif" font-size="14.00">[root] root</text>
</g>
<!-- [root] root&#45;&gt;[root] provider[&quot;registry.terraform.io/hashicorp/aws&quot;] (close) -->
<g id="edge8" class="edge">
<title>[root] root&#45;&gt;[root] provider[&quot;registry.terraform.io/hashicorp/aws&quot;] (close)</title>
<path fill="none" stroke="black" d="M417.38,-215.7C417.38,-207.98 417.38,-198.71 417.38,-190.11"/>
<polygon fill="black" stroke="black" points="420.88,-190.1 417.38,-180.1 413.88,-190.1 420.88,-190.1"/>
</g>
</g>
</svg>
